<svg width="31" height="30" viewBox="0 0 31 30" fill="none" xmlns="http://www.w3.org/2000/svg">
<g clip-path="url(#clip0_648_669)">
<mask id="mask0_648_669" style="mask-type:luminance" maskUnits="userSpaceOnUse" x="0" y="0" width="31" height="30">
<path d="M31 0H0V30H31V0Z" fill="white"/>
</mask>
<g mask="url(#mask0_648_669)">
<path d="M13.1084 21.6827C9.11229 21.2042 6.29686 18.363 6.29686 14.6844C6.29686 13.1891 6.84179 11.5741 7.75 10.4974C7.35646 9.5105 7.417 7.417 7.87109 6.54969C9.08202 6.40016 10.7168 7.02819 11.6855 7.8955C12.8359 7.53662 14.0469 7.35719 15.5303 7.35719C17.0137 7.35719 18.2246 7.53662 19.3145 7.86559C20.2529 7.02819 21.918 6.40016 23.1289 6.54969C23.5527 7.35719 23.6133 9.45069 23.2197 10.4675C24.1885 11.604 24.7031 13.1293 24.7031 14.6844C24.7031 18.363 21.8877 21.1444 17.831 21.6528C18.8603 22.3108 19.5566 23.7463 19.5566 25.3912V28.5016C19.5566 29.3988 20.3135 29.9072 21.2217 29.5483C26.7012 27.4847 31 22.0715 31 15.3723C31 6.90856 24.0371 7.45747e-08 15.4697 0C6.90234 -7.45747e-08 7.54882e-08 6.90856 0 15.3723C-5.92166e-08 22.0117 4.26854 27.5147 10.0205 29.5782C10.8379 29.8773 11.625 29.339 11.625 28.5315V26.1389C11.2012 26.3184 10.6562 26.438 10.1719 26.438C8.17381 26.438 6.99316 25.3613 6.1455 23.3575C5.8125 22.5501 5.44923 22.0715 4.75293 21.9818C4.38966 21.9519 4.26854 21.8024 4.26854 21.6229C4.26854 21.264 4.87402 20.9949 5.4795 20.9949C6.35744 20.9949 7.11425 21.5332 7.90136 22.6398C8.50684 23.5071 9.14256 23.8959 9.89941 23.8959C10.6562 23.8959 11.1406 23.6267 11.8369 22.9388C12.3516 22.4304 12.7451 21.9818 13.1084 21.6827Z" fill="black"/>
</g>
</g>
<defs>
<clipPath id="clip0_648_669">
<rect width="31" height="30" fill="white"/>
</clipPath>
</defs>
</svg>
