<svg id="visual" viewBox="0 0 900 600" width="900" height="600" xmlns="http://www.w3.org/2000/svg" xmlns:xlink="http://www.w3.org/1999/xlink" version="1.1"><path d="M0 139L300 109L600 121L900 85L900 0L600 0L300 0L0 0Z" 
fill="#0b343b"></path><path d="M0 193L300 265L600 187L900 265L900 83L600 119L300 107L0 137Z" 
fill="#192f34"></path><path d="M0 409L300 445L600 367L900 349L900 263L600 185L300 263L0 191Z" 
fill="#212b2d"></path><path d="M0 601L300 601L600 601L900 601L900 347L600 365L300 443L0 407Z" 
fill="#262626"></path></svg>