<svg width="281" height="91" viewBox="0 0 281 91" fill="none" xmlns="http://www.w3.org/2000/svg">
<g clip-path="url(#clip0_664_28)">
<mask id="mask0_664_28" style="mask-type:luminance" maskUnits="userSpaceOnUse" x="0" y="0" width="90" height="90">
<path d="M90 0H0V90H90V0Z" fill="white"/>
</mask>
<g mask="url(#mask0_664_28)">
<path d="M90 0H79.875V90H90V0Z" fill="#D9D9D9"/>
<path d="M90 0H79.875V90H90V0Z" fill="#C1262B"/>
<path d="M10.125 0H0V90H10.125V0Z" fill="#C1262B"/>
<path d="M16.9543 -19.046L-19.0375 16.9458L73.59 109.573L109.582 73.5815L16.9543 -19.046Z" fill="#C1262B"/>
</g>
</g>
<path d="M99.008 39.8H109.592L120.104 52.4V39.8H122.264V65H113.804L101.204 48.224V65H99.008V39.8ZM131.857 39.8H142.369L153.529 65H139.921L136.141 56.648H128.221L124.981 65H122.353L131.857 39.8ZM135.133 54.452L131.857 47.144L129.013 54.452H135.133ZM155.527 48.224V65H153.403V39.8H163.915L169.171 50.312L173.347 39.8H184.867V65H173.347V46.1L166.003 65H162.871L155.527 48.224ZM185.827 39.8H197.563V65H185.827V39.8ZM118.016 73.836C120.872 74.604 123.008 75.624 124.424 76.896C125.84 78.144 126.548 79.776 126.548 81.792C126.548 83.4 126.044 84.84 125.036 86.112C124.028 87.384 122.54 88.38 120.572 89.1C118.628 89.82 116.264 90.18 113.48 90.18C110.192 90.18 107.288 89.76 104.768 88.92C102.272 88.056 100.316 87.012 98.9 85.788L100.088 84.168C101.336 85.152 102.908 85.992 104.804 86.688C106.7 87.384 108.74 87.732 110.924 87.732C112.34 87.732 113.408 87.528 114.128 87.12C114.872 86.712 115.244 86.136 115.244 85.392C115.244 84.096 113.96 83.088 111.392 82.368L106.712 81C104.168 80.232 102.2 79.164 100.808 77.796C99.44 76.428 98.756 74.808 98.756 72.936C98.756 71.376 99.248 69.96 100.232 68.688C101.216 67.416 102.644 66.42 104.516 65.7C106.412 64.956 108.68 64.584 111.32 64.584C113.84 64.584 116.156 64.872 118.268 65.448C120.404 66.024 122.144 66.72 123.488 67.536L122.3 69.192C121.172 68.544 119.816 67.992 118.232 67.536C116.672 67.08 115.028 66.852 113.3 66.852C111.788 66.852 110.624 67.092 109.808 67.572C109.016 68.028 108.62 68.664 108.62 69.48C108.62 70.104 108.92 70.656 109.52 71.136C110.12 71.592 111.26 72.048 112.94 72.504L118.016 73.836ZM133.915 64.8H144.427L155.587 90H141.979L138.199 81.648H130.279L127.039 90H124.411L133.915 64.8ZM137.191 79.452L133.915 72.144L131.071 79.452H137.191ZM145.773 64.8H158.013L166.437 83.844L173.529 64.8H178.929L187.209 83.412L194.121 64.8H196.893L187.389 90H176.481L171.261 78.192L166.797 90H156.933L145.773 64.8ZM197.99 64.8H208.502L219.662 90H206.054L202.274 81.648H194.354L191.114 90H188.486L197.99 64.8ZM201.266 79.452L197.99 72.144L195.146 79.452H201.266ZM219.645 64.8H238.581C242.013 64.8 244.977 66.024 247.473 68.472C249.945 70.944 251.181 73.908 251.181 77.364C251.181 80.868 249.945 83.856 247.473 86.328C245.001 88.776 242.037 90 238.581 90H219.645V64.8ZM234.405 87.912C235.773 87.912 236.757 87.468 237.357 86.58C237.933 85.716 238.293 84.492 238.437 82.908C238.557 81.876 238.617 80.028 238.617 77.364C238.617 75.3 238.545 73.332 238.401 71.46C238.257 70.044 237.897 68.964 237.321 68.22C236.721 67.332 235.749 66.888 234.405 66.888H232.245V87.912H234.405ZM257.715 64.8H268.227L279.387 90H265.779L261.999 81.648H254.079L250.839 90H248.211L257.715 64.8ZM260.991 79.452L257.715 72.144L254.871 79.452H260.991Z" fill="white"/>
<defs>
<clipPath id="clip0_664_28">
<rect width="90" height="90" fill="white"/>
</clipPath>
</defs>
</svg>
