<svg width="289" height="91" viewBox="0 0 289 91" fill="none" xmlns="http://www.w3.org/2000/svg">
<g clip-path="url(#clip0_641_30)">
<mask id="mask0_641_30" style="mask-type:luminance" maskUnits="userSpaceOnUse" x="0" y="0" width="90" height="90">
<path d="M90 0H0V90H90V0Z" fill="white"/>
</mask>
<g mask="url(#mask0_641_30)">
<path d="M90 0H79.875V90H90V0Z" fill="#D9D9D9"/>
<path d="M90 0H79.875V90H90V0Z" fill="#C1262B"/>
<path d="M10.125 0H0V90H10.125V0Z" fill="#C1262B"/>
<path d="M16.9543 -19.046L-19.0375 16.9458L73.59 109.573L109.582 73.5815L16.9543 -19.046Z" fill="#C1262B"/>
</g>
</g>
<path d="M99.008 39.8H109.592L120.104 52.4V39.8H122.264V65H113.804L101.204 48.224V65H99.008V39.8ZM132.937 39.8H143.449L154.609 65H141.001L137.221 56.648H129.301L126.061 65H123.433L132.937 39.8ZM136.213 54.452L132.937 47.144L130.093 54.452H136.213ZM158.155 48.224V65H156.031V39.8H166.543L171.799 50.312L175.975 39.8H187.495V65H175.975V46.1L168.631 65H165.499L158.155 48.224ZM189.535 39.8H201.271V65H189.535V39.8ZM118.016 73.836C120.872 74.604 123.008 75.624 124.424 76.896C125.84 78.144 126.548 79.776 126.548 81.792C126.548 83.4 126.044 84.84 125.036 86.112C124.028 87.384 122.54 88.38 120.572 89.1C118.628 89.82 116.264 90.18 113.48 90.18C110.192 90.18 107.288 89.76 104.768 88.92C102.272 88.056 100.316 87.012 98.9 85.788L100.088 84.168C101.336 85.152 102.908 85.992 104.804 86.688C106.7 87.384 108.74 87.732 110.924 87.732C112.34 87.732 113.408 87.528 114.128 87.12C114.872 86.712 115.244 86.136 115.244 85.392C115.244 84.096 113.96 83.088 111.392 82.368L106.712 81C104.168 80.232 102.2 79.164 100.808 77.796C99.44 76.428 98.756 74.808 98.756 72.936C98.756 71.376 99.248 69.96 100.232 68.688C101.216 67.416 102.644 66.42 104.516 65.7C106.412 64.956 108.68 64.584 111.32 64.584C113.84 64.584 116.156 64.872 118.268 65.448C120.404 66.024 122.144 66.72 123.488 67.536L122.3 69.192C121.172 68.544 119.816 67.992 118.232 67.536C116.672 67.08 115.028 66.852 113.3 66.852C111.788 66.852 110.624 67.092 109.808 67.572C109.016 68.028 108.62 68.664 108.62 69.48C108.62 70.104 108.92 70.656 109.52 71.136C110.12 71.592 111.26 72.048 112.94 72.504L118.016 73.836ZM135.715 64.8H146.227L157.387 90H143.779L139.999 81.648H132.079L128.839 90H126.211L135.715 64.8ZM138.991 79.452L135.715 72.144L132.871 79.452H138.991ZM149.373 64.8H161.613L170.037 83.844L177.129 64.8H182.529L190.809 83.412L197.721 64.8H200.493L190.989 90H180.081L174.861 78.192L170.397 90H160.533L149.373 64.8ZM203.39 64.8H213.902L225.062 90H211.454L207.674 81.648H199.754L196.514 90H193.886L203.39 64.8ZM206.666 79.452L203.39 72.144L200.546 79.452H206.666ZM226.485 64.8H245.421C248.853 64.8 251.817 66.024 254.313 68.472C256.785 70.944 258.021 73.908 258.021 77.364C258.021 80.868 256.785 83.856 254.313 86.328C251.841 88.776 248.877 90 245.421 90H226.485V64.8ZM241.245 87.912C242.613 87.912 243.597 87.468 244.197 86.58C244.773 85.716 245.133 84.492 245.277 82.908C245.397 81.876 245.457 80.028 245.457 77.364C245.457 75.3 245.385 73.332 245.241 71.46C245.097 70.044 244.737 68.964 244.161 68.22C243.561 67.332 242.589 66.888 241.245 66.888H239.085V87.912H241.245ZM266.355 64.8H276.867L288.027 90H274.419L270.639 81.648H262.719L259.479 90H256.851L266.355 64.8ZM269.631 79.452L266.355 72.144L263.511 79.452H269.631Z" fill="#1D0506"/>
<defs>
<clipPath id="clip0_641_30">
<rect width="90" height="90" fill="white"/>
</clipPath>
</defs>
</svg>
