<svg id="visual" viewBox="0 0 402 601" width="402" height="601" xmlns="http://www.w3.org/2000/svg" xmlns:xlink="http://www.w3.org/1999/xlink" version="1.1"><rect x="0" y="0" width="402" height="601" fill="#D0EEF3"></rect><defs><linearGradient id="grad1_0" x1="0%" y1="100%" x2="100%" y2="0%"><stop offset="30%" stop-color="#f2f2f2" stop-opacity="1"></stop><stop offset="70%" stop-color="#f2f2f2" stop-opacity="1"></stop></linearGradient></defs><defs><linearGradient id="grad1_1" x1="0%" y1="100%" x2="100%" y2="0%"><stop offset="30%" stop-color="#f2f2f2" stop-opacity="1"></stop><stop offset="70%" stop-color="#d0eef3" stop-opacity="1"></stop></linearGradient></defs><defs><linearGradient id="grad2_0" x1="0%" y1="100%" x2="100%" y2="0%"><stop offset="30%" stop-color="#f2f2f2" stop-opacity="1"></stop><stop offset="70%" stop-color="#f2f2f2" stop-opacity="1"></stop></linearGradient></defs><defs><linearGradient id="grad2_1" x1="0%" y1="100%" x2="100%" y2="0%"><stop offset="30%" stop-color="#d0eef3" stop-opacity="1"></stop><stop offset="70%" stop-color="#f2f2f2" stop-opacity="1"></stop></linearGradient></defs><g transform="translate(402, 601)"><path d="M-289.2 0C-276.2 -34 -263.1 -67.9 -251.3 -104.1C-239.4 -140.2 -228.8 -178.6 -204.5 -204.5C-180.2 -230.4 -142.4 -243.9 -106 -255.9C-69.7 -268 -34.8 -278.6 0 -289.2L0 0Z" fill="#e1f0f3"></path><path d="M-144.6 0C-138.1 -17 -131.6 -34 -125.6 -52C-119.7 -70.1 -114.4 -89.3 -102.3 -102.3C-90.1 -115.2 -71.2 -121.9 -53 -128C-34.8 -134 -17.4 -139.3 0 -144.6L0 0Z" fill="#f2f2f2"></path></g><g transform="translate(0, 0)"><path d="M289.2 0C252.4 25.7 215.5 51.5 202.3 83.8C189.2 116.1 199.7 155 188.8 188.8C177.9 222.6 145.7 251.3 110.7 267.2C75.7 283.1 37.8 286.2 0 289.2L0 0Z" fill="#e1f0f3"></path><path d="M144.6 0C126.2 12.9 107.8 25.7 101.2 41.9C94.6 58.1 99.8 77.5 94.4 94.4C89 111.3 72.9 125.7 55.3 133.6C37.8 141.5 18.9 143.1 0 144.6L0 0Z" fill="#f2f2f2"></path></g></svg>