<svg id="visual" viewBox="0 0 1280 800" width="1280" height="800" xmlns="http://www.w3.org/2000/svg" xmlns:xlink="http://www.w3.org/1999/xlink" version="1.1"><rect x="0" y="0" width="1280" height="800" fill="#D0EEF3"></rect><defs><linearGradient id="grad1_0" x1="37.5%" y1="100%" x2="100%" y2="0%"><stop offset="17.999999999999996%" stop-color="#f2f2f2" stop-opacity="1"></stop><stop offset="82%" stop-color="#f2f2f2" stop-opacity="1"></stop></linearGradient></defs><defs><linearGradient id="grad1_1" x1="37.5%" y1="100%" x2="100%" y2="0%"><stop offset="17.999999999999996%" stop-color="#f2f2f2" stop-opacity="1"></stop><stop offset="82%" stop-color="#d0eef3" stop-opacity="1"></stop></linearGradient></defs><defs><linearGradient id="grad2_0" x1="0%" y1="100%" x2="62.5%" y2="0%"><stop offset="17.999999999999996%" stop-color="#f2f2f2" stop-opacity="1"></stop><stop offset="82%" stop-color="#f2f2f2" stop-opacity="1"></stop></linearGradient></defs><defs><linearGradient id="grad2_1" x1="0%" y1="100%" x2="62.5%" y2="0%"><stop offset="17.999999999999996%" stop-color="#d0eef3" stop-opacity="1"></stop><stop offset="82%" stop-color="#f2f2f2" stop-opacity="1"></stop></linearGradient></defs><g transform="translate(1280, 800)"><path d="M-679.2 0C-624.1 -59.9 -569 -119.8 -531.6 -172.7C-494.2 -225.7 -474.6 -271.8 -455.5 -330.9C-436.4 -390.1 -417.9 -462.2 -377.9 -520.2C-338 -578.2 -276.5 -621.9 -209.9 -646C-143.3 -670.1 -71.7 -674.7 0 -679.2L0 0Z" fill="#e1f0f3"></path><path d="M-339.6 0C-312.1 -29.9 -284.5 -59.9 -265.8 -86.4C-247.1 -112.9 -237.3 -135.9 -227.7 -165.5C-218.2 -195 -209 -231.1 -189 -260.1C-169 -289.1 -138.2 -310.9 -104.9 -323C-71.7 -335.1 -35.8 -337.3 0 -339.6L0 0Z" fill="#f2f2f2"></path></g><g transform="translate(0, 0)"><path d="M679.2 0C672.6 68.8 666 137.6 646 209.9C626 282.2 592.6 358.1 518.6 376.8C444.6 395.5 330 357 269.2 370.5C208.4 384.1 201.5 449.6 165.6 509.8C129.7 569.9 64.9 624.6 0 679.2L0 0Z" fill="#e1f0f3"></path><path d="M339.6 0C336.3 34.4 333 68.8 323 104.9C313 141.1 296.3 179 259.3 188.4C222.3 197.7 165 178.5 134.6 185.3C104.2 192 100.8 224.8 82.8 254.9C64.9 284.9 32.4 312.3 0 339.6L0 0Z" fill="#f2f2f2"></path></g></svg>