<svg width="1280" height="800" viewBox="0 0 1280 800" fill="none" xmlns="http://www.w3.org/2000/svg">
<g clip-path="url(#clip0_805_511)">
<path d="M1280 0H0V800H1280V0Z" fill="#0B343B"/>
<path d="M600.8 800C655.9 740.1 711 680.2 748.4 627.3C785.8 574.3 805.4 528.2 824.5 469.1C843.6 409.9 862.1 337.8 902.1 279.8C942 221.8 1003.5 178.1 1070.1 154C1136.7 129.9 1208.3 125.3 1280 120.8V800H600.8Z" fill="#37484B"/>
<path d="M940.4 799.999C967.9 770.099 995.5 740.099 1014.2 713.599C1032.9 687.099 1042.7 664.099 1052.3 634.499C1061.8 604.999 1071 568.899 1091 539.899C1111 510.899 1141.8 489.099 1175.1 476.999C1208.3 464.899 1244.2 462.699 1280 460.399V799.999H940.4Z" fill="#5C5C5C"/>
<path d="M679.2 0C672.6 68.8 666 137.6 646 209.9C626 282.2 592.6 358.1 518.6 376.8C444.6 395.5 330 357 269.2 370.5C208.4 384.1 201.5 449.6 165.6 509.8C129.7 569.9 64.9 624.6 0 679.2V0H679.2Z" fill="#37484B"/>
<path d="M339.6 0C336.3 34.4 333 68.8 323 104.9C313 141.1 296.3 179 259.3 188.4C222.3 197.7 165 178.5 134.6 185.3C104.2 192 100.8 224.8 82.8 254.9C64.9 284.9 32.4 312.3 0 339.6V0H339.6Z" fill="#5C5C5C"/>
</g>
<defs>
<clipPath id="clip0_805_511">
<rect width="1280" height="800" fill="white"/>
</clipPath>
</defs>
</svg>
