<svg width="50" height="40" viewBox="0 0 50 40" fill="none" xmlns="http://www.w3.org/2000/svg">
<g clip-path="url(#clip0_636_600)">
<path d="M5.51572 5.22745C5.42139 2.50784 7.53203 0 10.385 0H39.6187C42.4716 0 44.5822 2.50784 44.4879 5.22745C44.3973 7.8399 44.5149 11.224 45.3633 13.9833C46.2144 16.7512 47.6495 18.5007 50 18.7255V21.2745C47.6495 21.4993 46.2144 23.2488 45.3633 26.0167C44.5149 28.776 44.3973 32.1601 44.4879 34.7726C44.5822 37.4922 42.4716 40 39.6187 40H10.385C7.53203 40 5.42139 37.4922 5.51582 34.7726C5.60635 32.1601 5.48867 28.776 4.64023 26.0167C3.78926 23.2488 2.35059 21.4993 0 21.2745V18.7255C2.35049 18.5007 3.78926 16.7512 4.64023 13.9833C5.48867 11.224 5.60635 7.8399 5.51572 5.22745Z" fill="url(#paint0_linear_636_600)"/>
<g filter="url(#filter0_d_636_600)">
<path d="M26.0843 30.6329C30.7031 30.6329 33.4865 28.3625 33.4865 24.6177C33.4865 21.787 31.5005 19.7377 28.5517 19.4133V19.2954C30.7182 18.9415 32.4183 16.9217 32.4183 14.666C32.4183 11.452 29.8907 9.3584 26.0392 9.3584H17.3732V30.6329H26.0843ZM20.7433 12.0564H25.2268C27.6641 12.0564 29.0482 13.1474 29.0482 15.123C29.0482 17.2313 27.4384 18.4108 24.5197 18.4108H20.7433V12.0564ZM20.7433 27.935V20.9319H25.1966C28.3862 20.9319 30.0411 22.1113 30.0411 24.4113C30.0411 26.7112 28.4314 27.935 25.3922 27.935H20.7433Z" fill="url(#paint1_linear_636_600)"/>
<path d="M26.0843 30.6329C30.7031 30.6329 33.4865 28.3625 33.4865 24.6177C33.4865 21.787 31.5005 19.7377 28.5517 19.4133V19.2954C30.7182 18.9415 32.4183 16.9217 32.4183 14.666C32.4183 11.452 29.8907 9.3584 26.0392 9.3584H17.3732V30.6329H26.0843ZM20.7433 12.0564H25.2268C27.6641 12.0564 29.0482 13.1474 29.0482 15.123C29.0482 17.2313 27.4384 18.4108 24.5197 18.4108H20.7433V12.0564ZM20.7433 27.935V20.9319H25.1966C28.3862 20.9319 30.0411 22.1113 30.0411 24.4113C30.0411 26.7112 28.4314 27.935 25.3922 27.935H20.7433Z" stroke="white"/>
</g>
</g>
<defs>
<filter id="filter0_d_636_600" x="0.873169" y="-3.1416" width="49.1133" height="54.2744" filterUnits="userSpaceOnUse" color-interpolation-filters="sRGB">
<feFlood flood-opacity="0" result="BackgroundImageFix"/>
<feColorMatrix in="SourceAlpha" type="matrix" values="0 0 0 0 0 0 0 0 0 0 0 0 0 0 0 0 0 0 127 0" result="hardAlpha"/>
<feOffset dy="4"/>
<feGaussianBlur stdDeviation="8"/>
<feColorMatrix type="matrix" values="0 0 0 0 0 0 0 0 0 0 0 0 0 0 0 0 0 0 0.15 0"/>
<feBlend mode="normal" in2="BackgroundImageFix" result="effect1_dropShadow_636_600"/>
<feBlend mode="normal" in="SourceGraphic" in2="effect1_dropShadow_636_600" result="shape"/>
</filter>
<linearGradient id="paint0_linear_636_600" x1="7.42959" y1="1.05863" x2="51.2532" y2="35.7099" gradientUnits="userSpaceOnUse">
<stop stop-color="#9013FE"/>
<stop offset="1" stop-color="#6610F2"/>
</linearGradient>
<linearGradient id="paint1_linear_636_600" x1="18.8973" y1="10.7587" x2="28.7203" y2="27.3066" gradientUnits="userSpaceOnUse">
<stop stop-color="white"/>
<stop offset="1" stop-color="#F1E5FC"/>
</linearGradient>
<clipPath id="clip0_636_600">
<rect width="50" height="40" fill="white"/>
</clipPath>
</defs>
</svg>
