<svg width="50" height="39" viewBox="0 0 50 39" fill="none" xmlns="http://www.w3.org/2000/svg">
<g clip-path="url(#clip0_636_532)">
<mask id="mask0_636_532" style="mask-type:luminance" maskUnits="userSpaceOnUse" x="0" y="0" width="50" height="39">
<path d="M49.9265 0H0V39H49.9265V0Z" fill="white"/>
</mask>
<g mask="url(#mask0_636_532)">
<path d="M49.1177 16.022C47.8971 15.2071 44.6765 14.8578 42.3383 15.4836C42.2059 13.1843 41.0147 11.2343 38.8088 9.54627L38 9.00784L37.4559 9.82276C36.3971 11.4235 35.9412 13.5627 36.103 15.4981C36.2206 16.6914 36.6471 18.0302 37.4559 19.0052C34.4118 20.7515 31.603 20.3586 19.1765 20.3586H1.93068e-05C-0.0588042 23.1381 0.397078 28.4787 3.82355 32.8153C4.2059 33.2955 4.61767 33.7612 5.07355 34.2123C7.86767 36.9772 12.0735 39 18.3824 39.0146C28 39.0146 36.2353 33.8776 41.25 21.4354C42.8971 21.4646 47.25 21.7265 49.3824 17.6519C49.4412 17.5791 49.9265 16.575 49.9265 16.575L49.1177 16.0366V16.022ZM12.5294 13.4899H7.13237V18.8306H12.5294V13.4899ZM19.5 13.4899H14.103V18.8306H19.5V13.4899ZM26.4559 13.4899H21.0588V18.8306H26.4559V13.4899ZM33.4265 13.4899H28.0294V18.8306H33.4265V13.4899ZM5.55884 13.4899H0.161784V18.8306H5.55884V13.4899ZM12.5294 6.73769H7.13237V12.0784H12.5294V6.73769ZM19.5 6.73769H14.103V12.0784H19.5V6.73769ZM26.4559 6.73769H21.0588V12.0784H26.4559V6.73769ZM26.4559 0H21.0588V5.34067H26.4559V0Z" fill="#2560FF"/>
</g>
</g>
<defs>
<clipPath id="clip0_636_532">
<rect width="50" height="39" fill="white"/>
</clipPath>
</defs>
</svg>
