<svg width="40" height="50" viewBox="0 0 40 50" fill="none" xmlns="http://www.w3.org/2000/svg">
<path d="M12.1875 32.8125C12.1875 30.6552 13.9364 28.9062 16.0938 28.9062H20V32.8125C20 34.9698 18.2511 36.7188 16.0938 36.7188C13.9364 36.7188 12.1875 34.9698 12.1875 32.8125Z" fill="#24CB71"/>
<path d="M20 13.2812V21.0938H23.9062C26.0636 21.0938 27.8125 19.3448 27.8125 17.1875C27.8125 15.0302 26.0636 13.2812 23.9062 13.2812H20Z" fill="#FF7237"/>
<path d="M23.8737 28.9062C26.0311 28.9062 27.78 27.1574 27.78 25C27.78 22.8426 26.0311 21.0938 23.8737 21.0938C21.7164 21.0938 19.9675 22.8426 19.9675 25C19.9675 27.1574 21.7164 28.9062 23.8737 28.9062Z" fill="#00B6FF"/>
<path d="M12.1875 17.1875C12.1875 19.3448 13.9364 21.0938 16.0938 21.0938H20V13.2812H16.0938C13.9364 13.2812 12.1875 15.0302 12.1875 17.1875Z" fill="#FF3737"/>
<path d="M12.1875 25C12.1875 27.1573 13.9364 28.9062 16.0938 28.9062H20V21.0938H16.0938C13.9364 21.0938 12.1875 22.8427 12.1875 25Z" fill="#874FFF"/>
</svg>
