<svg width="50" height="49" viewBox="0 0 50 49" fill="none" xmlns="http://www.w3.org/2000/svg">
<g clip-path="url(#clip0_636_564)">
<mask id="mask0_636_564" style="mask-type:luminance" maskUnits="userSpaceOnUse" x="0" y="0" width="50" height="49">
<path d="M50 0H0V49H50V0Z" fill="white"/>
</mask>
<g mask="url(#mask0_636_564)">
<path d="M21.1426 35.4152C14.6972 34.6336 10.1562 29.993 10.1562 23.9846C10.1562 21.5422 11.0352 18.9044 12.5 17.1458C11.8653 15.5338 11.9629 12.1144 12.6953 10.6978C14.6484 10.4536 17.2852 11.4794 18.8477 12.896C20.7031 12.3098 22.6562 12.0167 25.0488 12.0167C27.4414 12.0167 29.3945 12.3098 31.1523 12.8471C32.666 11.4794 35.3516 10.4536 37.3047 10.6978C37.9883 12.0167 38.0859 15.4361 37.4512 17.097C39.0137 18.9532 39.8437 21.4445 39.8437 23.9846C39.8437 29.993 35.3028 34.5359 28.7597 35.3663C30.4199 36.4409 31.543 38.7857 31.543 41.4724V46.5526C31.543 48.0181 32.7637 48.8485 34.2285 48.2623C43.0664 44.8918 50 36.0502 50 25.1081C50 11.284 38.7695 1.21805e-07 24.9512 0C11.1328 -1.21805e-07 1.21755e-07 11.284 0 25.1081C-9.55107e-08 35.9525 6.88475 44.9406 16.1621 48.3111C17.4805 48.7996 18.75 47.9204 18.75 46.6015V42.6936C18.0664 42.9867 17.1875 43.1821 16.4062 43.1821C13.1836 43.1821 11.2793 41.4235 9.91209 38.1506C9.375 36.8318 8.78908 36.0502 7.66602 35.9036C7.0801 35.8548 6.88474 35.6105 6.88474 35.3175C6.88474 34.7313 7.86133 34.2916 8.83791 34.2916C10.2539 34.2916 11.4746 35.1709 12.7441 36.9783C13.7207 38.3949 14.7461 39.0299 15.9668 39.0299C17.1875 39.0299 17.9687 38.5903 19.0918 37.4668C19.9219 36.6363 20.5566 35.9036 21.1426 35.4152Z" fill="black"/>
</g>
</g>
<defs>
<clipPath id="clip0_636_564">
<rect width="50" height="49" fill="white"/>
</clipPath>
</defs>
</svg>
