<svg width="50" height="50" viewBox="0 0 50 50" fill="none" xmlns="http://www.w3.org/2000/svg">
<path fill-rule="evenodd" clip-rule="evenodd" d="M25 3.45166L43.6615 14.2259V35.7743L25 46.5485L6.3385 35.7743V14.2259L25 3.45166ZM8.43235 15.4348V31.2627L22.1398 7.52082L8.43235 15.4348ZM25 6.75442L9.19875 34.123H40.8013L25 6.75442ZM38.7074 36.2168H11.2926L25 44.1308L38.7074 36.2168ZM41.5676 31.2627L27.8603 7.52082L41.5676 15.4348V31.2627Z" fill="#E10098"/>
<path d="M25 9.07049C27.4355 9.07049 29.41 7.09606 29.41 4.66049C29.41 2.22491 27.4355 0.250488 25 0.250488C22.5644 0.250488 20.59 2.22491 20.59 4.66049C20.59 7.09606 22.5644 9.07049 25 9.07049Z" fill="#E10098"/>
<path d="M42.6146 19.2404C45.0502 19.2404 47.0246 17.266 47.0246 14.8304C47.0246 12.3948 45.0502 10.4204 42.6146 10.4204C40.179 10.4204 38.2046 12.3948 38.2046 14.8304C38.2046 17.266 40.179 19.2404 42.6146 19.2404Z" fill="#E10098"/>
<path d="M42.6146 39.5798C45.0502 39.5798 47.0246 37.6053 47.0246 35.1698C47.0246 32.7342 45.0502 30.7598 42.6146 30.7598C40.179 30.7598 38.2046 32.7342 38.2046 35.1698C38.2046 37.6053 40.179 39.5798 42.6146 39.5798Z" fill="#E10098"/>
<path d="M25 49.7497C27.4355 49.7497 29.41 47.7753 29.41 45.3397C29.41 42.9041 27.4355 40.9297 25 40.9297C22.5644 40.9297 20.59 42.9041 20.59 45.3397C20.59 47.7753 22.5644 49.7497 25 49.7497Z" fill="#E10098"/>
<path d="M7.3829 39.5798C9.81848 39.5798 11.7929 37.6053 11.7929 35.1698C11.7929 32.7342 9.81848 30.7598 7.3829 30.7598C4.94732 30.7598 2.9729 32.7342 2.9729 35.1698C2.9729 37.6053 4.94732 39.5798 7.3829 39.5798Z" fill="#E10098"/>
<path d="M7.3829 19.2404C9.81848 19.2404 11.7929 17.266 11.7929 14.8304C11.7929 12.3948 9.81848 10.4204 7.3829 10.4204C4.94732 10.4204 2.9729 12.3948 2.9729 14.8304C2.9729 17.266 4.94732 19.2404 7.3829 19.2404Z" fill="#E10098"/>
</svg>
