<svg width="50" height="16" viewBox="0 0 50 16" fill="none" xmlns="http://www.w3.org/2000/svg">
<g clip-path="url(#clip0_637_652)">
<path d="M15.9175 10.785C15.92 10.864 15.9524 10.939 16.008 10.995C16.0637 11.0509 16.1384 11.0835 16.2171 11.0862H17.4959C17.5746 11.0835 17.6493 11.0509 17.705 10.995C17.7606 10.939 17.793 10.864 17.7955 10.785V7.30313C17.9534 6.87513 18.3326 6.3049 19.1218 6.3049C19.927 6.3049 20.2902 6.82751 20.2902 7.65132V10.785C20.2901 10.8246 20.2978 10.8637 20.3128 10.9002C20.3278 10.9368 20.3499 10.97 20.3777 10.998C20.4055 11.026 20.4386 11.0482 20.475 11.0633C20.5114 11.0784 20.5504 11.0862 20.5898 11.0862H21.7736C21.853 11.0845 21.9287 11.0523 21.9851 10.9962C22.0416 10.9402 22.0745 10.8646 22.0771 10.785V7.56701C22.0771 7.28189 22.0611 6.96524 22.0611 6.96524C22.2115 6.75448 22.4109 6.58372 22.642 6.46775C22.8731 6.35179 23.1289 6.29412 23.3873 6.29975C24.1765 6.29975 24.5711 6.82236 24.5711 7.64617V10.785C24.571 10.8246 24.5787 10.8637 24.5937 10.9002C24.6087 10.9368 24.6308 10.97 24.6586 10.998C24.6865 11.026 24.7195 11.0482 24.7559 11.0633C24.7923 11.0784 24.8313 11.0862 24.8707 11.0862H26.1495C26.1889 11.0862 26.2279 11.0784 26.2643 11.0633C26.3007 11.0482 26.3338 11.026 26.3616 10.998C26.3894 10.97 26.4115 10.9368 26.4265 10.9002C26.4415 10.8637 26.4492 10.8246 26.4491 10.785V7.76009C26.4491 6.09702 25.7074 4.59163 23.6863 4.59163C22.55 4.59163 21.7287 5.28865 21.4605 5.57377C20.9395 4.93982 20.3056 4.59163 19.4073 4.59163C19.0091 4.59186 18.6153 4.67505 18.2508 4.83591C17.8863 4.99678 17.5591 5.23182 17.2899 5.52614L17.0724 4.92823C17.0523 4.87414 17.0153 4.82798 16.967 4.79657C16.9187 4.76516 16.8617 4.75017 16.8042 4.75382H16.2203C16.1809 4.75382 16.1419 4.76161 16.1055 4.77676C16.0691 4.7919 16.0361 4.8141 16.0082 4.84208C15.9804 4.87005 15.9583 4.90326 15.9433 4.9398C15.9283 4.97634 15.9206 5.0155 15.9207 5.05502V10.785H15.9175ZM28.2168 12.7995C28.2168 13.7186 27.8222 14.2412 27.1119 14.2412C26.7648 14.2412 26.3856 14.0481 26.1803 13.9245C26.0385 13.8454 25.8646 13.8769 25.8017 14.0037L25.2807 15.0174C25.2476 15.0761 25.2359 15.1446 25.2477 15.2111C25.2594 15.2775 25.2937 15.3378 25.3449 15.3817C25.6131 15.6352 26.3715 15.9995 27.2056 15.9995C28.879 15.9995 30.1417 14.8906 30.1417 12.7995V5.05309C30.1418 5.01357 30.1341 4.97441 30.1191 4.93787C30.104 4.90133 30.082 4.86812 30.0542 4.84015C30.0263 4.81217 29.9933 4.78997 29.9569 4.77483C29.9205 4.75968 29.8815 4.75188 29.842 4.75188H28.5171C28.4777 4.75188 28.4387 4.75968 28.4023 4.77483C28.3659 4.78997 28.3328 4.81217 28.305 4.84015C28.2772 4.86812 28.2551 4.90133 28.2401 4.93787C28.2251 4.97441 28.2174 5.01357 28.2175 5.05309V12.7995H28.2168ZM32.0371 10.785C32.0396 10.864 32.072 10.939 32.1276 10.995C32.1832 11.0509 32.258 11.0835 32.3367 11.0862H33.6155C33.6942 11.0835 33.7689 11.0509 33.8245 10.995C33.8802 10.939 33.9125 10.864 33.9151 10.785V7.30313C34.0729 6.87513 34.4521 6.3049 35.2413 6.3049C36.0466 6.3049 36.4097 6.82751 36.4097 7.65132V10.785C36.4097 10.8246 36.4173 10.8637 36.4324 10.9002C36.4474 10.9368 36.4694 10.97 36.4973 10.998C36.5251 11.026 36.5582 11.0482 36.5946 11.0633C36.631 11.0784 36.67 11.0862 36.7094 11.0862H37.8932C37.9719 11.0835 38.0466 11.0509 38.1023 10.995C38.1579 10.939 38.1903 10.864 38.1928 10.785V7.56701C38.1928 7.28189 38.1768 6.96524 38.1768 6.96524C38.3272 6.75448 38.5266 6.58372 38.7577 6.46775C38.9888 6.35179 39.2447 6.29412 39.503 6.29975C40.2922 6.29975 40.6868 6.82236 40.6868 7.64617V10.785C40.6867 10.8246 40.6944 10.8637 40.7094 10.9002C40.7245 10.9368 40.7465 10.97 40.7744 10.998C40.8022 11.026 40.8352 11.0482 40.8716 11.0633C40.908 11.0784 40.9471 11.0862 40.9865 11.0862H42.2652C42.3046 11.0862 42.3436 11.0784 42.38 11.0633C42.4164 11.0482 42.4495 11.026 42.4773 10.998C42.5052 10.97 42.5272 10.9368 42.5422 10.9002C42.5573 10.8637 42.5649 10.8246 42.5649 10.785V7.76009C42.5649 6.09702 41.8231 4.59163 39.802 4.59163C38.6657 4.59163 37.8444 5.28865 37.5762 5.57377C37.0552 4.93982 36.4213 4.59163 35.523 4.59163C35.1248 4.59186 34.731 4.67505 34.3665 4.83591C34.002 4.99678 33.6748 5.23182 33.4056 5.52614L33.1894 4.92823C33.1693 4.87414 33.1323 4.82798 33.084 4.79657C33.0357 4.76516 32.9787 4.75017 32.9212 4.75382H32.3373C32.2979 4.75382 32.2589 4.76161 32.2225 4.77676C32.1861 4.7919 32.1531 4.8141 32.1252 4.84208C32.0974 4.87005 32.0753 4.90326 32.0603 4.9398C32.0453 4.97634 32.0376 5.0155 32.0377 5.05502V10.785H32.0371ZM44.3345 10.785C44.337 10.864 44.3694 10.939 44.425 10.995C44.4806 11.0509 44.5554 11.0835 44.6341 11.0862H45.9603C46.0391 11.0835 46.1138 11.0509 46.1694 10.995C46.2251 10.939 46.2574 10.864 46.26 10.785V0.300718C46.2574 0.221758 46.2251 0.146722 46.1694 0.0907988C46.1138 0.0348761 46.0391 0.00224496 45.9603 -0.000488281H44.6347C44.556 0.00224496 44.4813 0.0348761 44.4257 0.0907988C44.37 0.146722 44.3377 0.221758 44.3351 0.300718V10.785H44.3345Z" fill="#F45E43"/>
<path d="M11.317 5.07832C12.0452 5.07832 12.6356 4.48617 12.6356 3.75571C12.6356 3.02526 12.0452 2.43311 11.317 2.43311C10.5888 2.43311 9.99847 3.02526 9.99847 3.75571C9.99847 4.48617 10.5888 5.07832 11.317 5.07832Z" fill="#F45E43"/>
<path d="M29.126 3.51767C29.4173 3.51767 29.6967 3.40158 29.9027 3.19494C30.1087 2.9883 30.2245 2.70804 30.2245 2.41582C30.2245 2.12359 30.1087 1.84333 29.9027 1.63669C29.6967 1.43005 29.4173 1.31396 29.126 1.31396C28.8347 1.31396 28.5553 1.43005 28.3493 1.63669C28.1433 1.84333 28.0275 2.12359 28.0275 2.41582C28.0275 2.70804 28.1433 2.9883 28.3493 3.19494C28.5553 3.40158 28.8347 3.51767 29.126 3.51767Z" fill="#F45E43"/>
<path d="M48.8855 10.7266C49.1768 10.7266 49.4562 10.6106 49.6622 10.4039C49.8682 10.1973 49.984 9.91703 49.984 9.6248C49.984 9.33257 49.8682 9.05231 49.6622 8.84567C49.4562 8.63904 49.1768 8.52295 48.8855 8.52295C48.5942 8.52295 48.3148 8.63904 48.1088 8.84567C47.9028 9.05231 47.787 9.33257 47.787 9.6248C47.787 9.91703 47.9028 10.1973 48.1088 10.4039C48.3148 10.6106 48.5942 10.7266 48.8855 10.7266Z" fill="#F45E43"/>
<path d="M7.40437 2.44043H1.31533C0.588895 2.44043 0 3.031 0 3.7595C0 4.488 0.588895 5.07856 1.31533 5.07856H7.40437C8.1308 5.07856 8.7197 4.488 8.7197 3.7595C8.7197 3.031 8.1308 2.44043 7.40437 2.44043Z" fill="#F45E43"/>
<path d="M1.31854 9.26728C2.04675 9.26728 2.63708 8.67513 2.63708 7.94468C2.63708 7.21422 2.04675 6.62207 1.31854 6.62207C0.590331 6.62207 0 7.21422 0 7.94468C0 8.67513 0.590331 9.26728 1.31854 9.26728Z" fill="#F63A4D"/>
<path d="M5.23119 9.26807L11.3202 9.26807C12.0467 9.26807 12.6356 8.6775 12.6356 7.949C12.6356 7.2205 12.0467 6.62993 11.3202 6.62993L5.23119 6.62993C4.50476 6.62993 3.91586 7.2205 3.91586 7.949C3.91586 8.6775 4.50476 9.26807 5.23119 9.26807Z" fill="#F45E43"/>
<path d="M11.317 13.4455C12.0452 13.4455 12.6356 12.8534 12.6356 12.1229C12.6356 11.3924 12.0452 10.8003 11.317 10.8003C10.5888 10.8003 9.99847 11.3924 9.99847 12.1229C9.99847 12.8534 10.5888 13.4455 11.317 13.4455Z" fill="#F45E43"/>
<path d="M7.40437 10.7998H1.31533C0.588895 10.7998 0 11.3904 0 12.1189C0 12.8474 0.588895 13.4379 1.31533 13.4379H7.40437C8.1308 13.4379 8.7197 12.8474 8.7197 12.1189C8.7197 11.3904 8.1308 10.7998 7.40437 10.7998Z" fill="#F45E43"/>
</g>
<defs>
<clipPath id="clip0_637_652">
<rect width="50" height="16" fill="white"/>
</clipPath>
</defs>
</svg>
