<svg width="50" height="33" viewBox="0 0 50 33" fill="none" xmlns="http://www.w3.org/2000/svg">
<path d="M5.76923 24.5788H7.03635V19.6251L8.99791 23.9435C9.22939 24.4661 9.54622 24.6511 10.1675 24.6511C10.789 24.6511 11.0936 24.4662 11.3251 23.9435L13.2867 19.6251V24.5787H14.5538V19.6332C14.5538 19.1507 14.3589 18.9175 13.9569 18.797C12.9944 18.4994 12.3486 18.7567 12.0561 19.4001L10.131 23.662L8.26696 19.4001C7.98674 18.7567 7.32881 18.4994 6.36628 18.797C5.9642 18.9175 5.76923 19.1508 5.76923 19.6331V24.5788ZM15.6074 20.5468H16.8742V23.2759C16.8623 23.4241 16.9222 23.7721 17.6164 23.7828C17.9705 23.7884 20.3495 23.7828 20.3717 23.7828V20.5335H21.6414C21.6472 20.5335 21.6401 24.9648 21.6402 24.9837C21.6471 26.0765 20.2705 26.3139 19.6359 26.3323H15.6349V25.4883C15.642 25.4883 19.633 25.4892 19.643 25.4882C20.4586 25.4029 20.3622 25.0016 20.3622 24.8665V24.5375H17.6688C16.4157 24.5261 15.6179 23.9846 15.608 23.3619C15.607 23.3042 15.6352 20.5741 15.6074 20.5468Z" fill="#00618A"/>
<path d="M22.618 24.5785H26.2609C26.6873 24.5785 27.1015 24.4901 27.4306 24.3372C27.9788 24.088 28.2469 23.7503 28.2469 23.3079V22.3912C28.2469 22.0293 27.9423 21.6915 27.3452 21.4665C27.0284 21.3457 26.6386 21.2815 26.2609 21.2815H24.7256C24.214 21.2815 23.9703 21.1287 23.9095 20.791C23.8972 20.7507 23.8972 20.7185 23.8972 20.6784V20.1075C23.8972 20.0753 23.8972 20.043 23.9095 20.0029C23.9703 19.7456 24.1044 19.6731 24.5551 19.6329C24.5917 19.6329 24.6404 19.6248 24.677 19.6248H28.2956V18.7887H24.7379C24.2262 18.7887 23.9581 18.8208 23.7145 18.8931C22.9591 19.1264 22.6301 19.4963 22.6301 20.1395V20.8714C22.6301 21.4343 23.2759 21.9168 24.3602 22.0293C24.4821 22.0373 24.6039 22.0453 24.7257 22.0453H26.0415C26.0904 22.0453 26.1391 22.0453 26.1756 22.0534C26.5777 22.0857 26.7482 22.158 26.8701 22.3027C26.9432 22.375 26.9675 22.4475 26.9675 22.5279V23.2595C26.9675 23.3481 26.9067 23.4608 26.7849 23.5572C26.6752 23.6537 26.4924 23.7181 26.2487 23.7342C26.2 23.7342 26.1635 23.7422 26.1147 23.7422H22.6179V24.5784L22.618 24.5785ZM36.1516 23.123C36.1516 23.9834 36.7973 24.4659 38.101 24.5624C38.2227 24.5705 38.3447 24.5785 38.4665 24.5785H41.7684V23.7422H38.4421C37.6989 23.7422 37.4187 23.5572 37.4187 23.115V18.7886H36.1516V23.123ZM29.0556 23.1668V20.1853C29.0556 19.4278 29.5929 18.9684 30.6549 18.8233C30.7682 18.8074 30.8824 18.7993 30.9968 18.7992H33.402C33.5241 18.7992 33.6341 18.8073 33.7561 18.8233C34.8183 18.9684 35.3555 19.4278 35.3555 20.1853V23.1667C35.3555 23.7812 35.1274 24.1102 34.6016 24.3245L35.8497 25.4398H34.3785L33.3687 24.5374L32.3521 24.6012H30.9968C30.7649 24.6012 30.5207 24.5689 30.2521 24.4964C29.4463 24.2789 29.0556 23.8598 29.0556 23.1667V23.1668ZM30.4232 23.0944C30.4232 23.1347 30.4354 23.175 30.4476 23.2233C30.5208 23.5698 30.8505 23.7632 31.3511 23.7632H32.5022L31.4448 22.8181H32.916L33.8383 23.6424C34.0082 23.5527 34.1201 23.4155 34.1592 23.2394C34.1713 23.1992 34.1713 23.1588 34.1713 23.1186V20.2579C34.1713 20.2257 34.1713 20.1854 34.1592 20.145C34.0859 19.8227 33.7562 19.6374 33.2679 19.6374H31.3511C30.7895 19.6374 30.4233 19.8792 30.4233 20.2579V23.0944H30.4232Z" fill="#E48E00"/>
<path d="M42.883 17.4014C42.1042 17.3805 41.5092 17.4522 41.0006 17.6646C40.856 17.725 40.6256 17.7265 40.602 17.9059C40.6814 17.9883 40.6937 18.1114 40.7569 18.2128C40.8782 18.4074 41.0834 18.6681 41.2663 18.8049C41.4662 18.9543 41.6722 19.114 41.8866 19.2435C42.2677 19.4735 42.6933 19.6049 43.0603 19.8354C43.2766 19.9713 43.4915 20.1424 43.7026 20.2958C43.8069 20.3716 43.877 20.4895 44.0126 20.5371V20.5151C43.9414 20.4253 43.923 20.3019 43.8576 20.2081L43.5697 19.923C43.2882 19.5531 42.9308 19.2282 42.5509 18.9583C42.248 18.743 41.5699 18.4523 41.4435 18.1032L41.4213 18.0812C41.6361 18.0573 41.8876 17.9803 42.0859 17.9279C42.4189 17.8394 42.7164 17.8622 43.0603 17.7743C43.2153 17.7304 43.3704 17.6865 43.5255 17.6427V17.555C43.3516 17.3784 43.2277 17.1447 43.038 16.9849C42.5422 16.5668 42.0009 16.1491 41.4435 15.8009C41.1344 15.6077 40.7523 15.4822 40.4248 15.3184C40.3145 15.2634 40.1209 15.2348 40.0481 15.143C39.8761 14.9258 39.7823 14.6505 39.6495 14.3975C39.3716 13.8675 39.0985 13.2887 38.8523 12.731C38.6842 12.3508 38.5745 11.9759 38.365 11.6347C37.3594 9.99782 36.2769 9.00994 34.6 8.03877C34.2432 7.83227 33.8136 7.75061 33.3596 7.64413L32.6287 7.60017C32.48 7.53863 32.3253 7.3586 32.1857 7.27127C31.6302 6.92391 30.2054 6.16813 29.7939 7.16167C29.5341 7.7888 30.1822 8.40079 30.414 8.71855C30.5767 8.94147 30.785 9.19134 30.9012 9.44209C30.9777 9.60689 30.9909 9.77207 31.0563 9.94643C31.2173 10.3759 31.3573 10.8432 31.5657 11.2401C31.6709 11.4409 31.787 11.6525 31.9201 11.832C32.0017 11.9423 32.1415 11.9909 32.1636 12.161C32.0268 12.3505 32.019 12.6445 31.9422 12.8846C31.596 13.9651 31.7266 15.3081 32.2301 16.1078C32.3846 16.3533 32.7485 16.8798 33.2489 16.6779C33.6866 16.5014 33.5888 15.9545 33.714 15.472C33.7423 15.3626 33.7249 15.2821 33.7804 15.2088V15.2308L34.179 16.0201C34.4741 16.4904 34.9978 16.9821 35.4415 17.3138C35.6716 17.4858 35.8528 17.7833 36.1503 17.8839V17.8619H36.1281C36.0704 17.773 35.9803 17.7361 35.9067 17.6646C35.7333 17.4964 35.5406 17.2872 35.3972 17.0945C34.9937 16.5521 34.637 15.9585 34.312 15.3404C34.1568 15.0454 34.022 14.7197 33.8911 14.4195C33.8407 14.3037 33.8413 14.1287 33.7362 14.0686C33.5929 14.2887 33.3819 14.4666 33.2711 14.7265C33.0939 15.1418 33.071 15.6483 33.0054 16.1736C32.9665 16.1873 32.9836 16.1779 32.961 16.1954C32.6525 16.1218 32.5441 15.8074 32.4295 15.5377C32.1394 14.8557 32.0856 13.7575 32.3407 12.9724C32.4068 12.7692 32.7052 12.1294 32.5844 11.9418C32.5268 11.7546 32.3366 11.6462 32.2301 11.5032C32.0984 11.3263 31.9669 11.0934 31.8757 10.8892C31.6384 10.3574 31.5276 9.76044 31.2777 9.22289C31.1583 8.96589 30.9564 8.70585 30.7905 8.47737C30.6069 8.22437 30.4012 8.0378 30.259 7.73175C30.2083 7.62303 30.1396 7.44896 30.2146 7.33711C30.2385 7.2617 30.2722 7.23015 30.3476 7.20553C30.476 7.10756 30.8338 7.23816 30.9676 7.29325C31.3228 7.43929 31.6192 7.57839 31.9201 7.77561C32.0645 7.87046 32.2106 8.05382 32.3851 8.10461H32.5844C32.8962 8.17553 33.2455 8.12659 33.5368 8.21421C34.0517 8.36914 34.513 8.61003 34.932 8.87201C36.2087 9.66999 37.2524 10.806 37.9664 12.161C38.0812 12.3791 38.131 12.5874 38.2321 12.8188C38.4363 13.2855 38.6934 13.7658 38.8965 14.2221C39.0991 14.6773 39.2967 15.1369 39.5831 15.5159C39.7338 15.715 40.3154 15.8219 40.5797 15.9324C40.7651 16.0099 41.0687 16.0907 41.2442 16.1954C41.5795 16.3957 41.9043 16.634 42.2188 16.8533C42.376 16.9629 42.859 17.2033 42.883 17.4014Z" fill="#00618A"/>
<path fill-rule="evenodd" clip-rule="evenodd" d="M32.9831 9.04715C32.8207 9.04422 32.7059 9.06474 32.5844 9.09092V9.1129H32.6066C32.6841 9.27046 32.8207 9.37185 32.9166 9.50754C32.9904 9.66106 33.0643 9.81455 33.1381 9.96802L33.1603 9.94614C33.2974 9.85041 33.3603 9.69734 33.3596 9.46377C33.3046 9.40653 33.2964 9.33464 33.2489 9.26636C33.1855 9.17532 33.063 9.12374 32.9831 9.04715Z" fill="#00618A"/>
<path fill-rule="evenodd" clip-rule="evenodd" d="M42.363 23.7183C42.363 24.2706 42.8039 24.6428 43.297 24.6428C43.79 24.6428 44.2308 24.2706 44.2308 23.7183C44.2308 23.1661 43.79 22.7939 43.297 22.7939C42.8039 22.7939 42.3631 23.1661 42.3631 23.7183H42.363ZM44.0216 23.7183C44.0216 24.1374 43.6979 24.4506 43.297 24.4506C42.8911 24.4506 42.5723 24.1374 42.5723 23.7183C42.5723 23.2993 42.891 22.9861 43.297 22.9861C43.6979 22.9861 44.0216 23.2993 44.0216 23.7183ZM43.5486 24.2458H43.7576L43.4515 23.7825C43.6158 23.7652 43.7402 23.6863 43.7402 23.494C43.7402 23.2795 43.6033 23.1908 43.3394 23.1908H42.9235V24.2458H43.1028V23.7898H43.2695L43.5486 24.2458ZM43.1028 23.6419V23.3387H43.3094C43.4165 23.3387 43.546 23.3585 43.546 23.4817C43.546 23.6295 43.429 23.6419 43.2944 23.6419H43.1028Z" fill="#E48E00"/>
</svg>
