<svg width="50" height="50" viewBox="0 0 50 50" fill="none" xmlns="http://www.w3.org/2000/svg">
<g clip-path="url(#clip0_636_521)">
<path fill-rule="evenodd" clip-rule="evenodd" d="M29.4395 0.0972605C29.0793 0.0972605 28.7427 0.174034 28.4356 0.274429C29.094 0.717351 29.4543 1.29315 29.6374 1.95163C29.6492 2.04021 29.6757 2.10517 29.6876 2.19671C29.6994 2.28825 29.7171 2.35026 29.7171 2.43294C29.7702 3.56977 29.4218 3.7115 29.1738 4.38179C28.7988 5.24697 28.9021 6.1771 29.3509 6.92121C29.392 7.02083 29.4435 7.11584 29.5045 7.20468C29.0143 3.93887 31.7398 3.44575 32.2417 2.42703C32.2801 1.53528 31.5449 0.941765 30.9632 0.528371C30.408 0.191751 29.9002 0.0854492 29.4395 0.0854492V0.0972605ZM33.5439 0.835464C33.4908 1.13075 33.5321 1.05397 33.5144 1.21047L33.4849 1.54709L33.3963 1.85714C33.3668 1.96049 33.3313 2.06383 33.2929 2.16718L33.1512 2.46246C33.1128 2.51562 33.0863 2.56581 33.0479 2.61601L32.9711 2.73412L32.7762 2.99102C32.6994 3.06779 32.6345 3.15933 32.54 3.22724C32.4455 3.29516 32.3864 3.38079 32.2949 3.44575C32.0232 3.65245 31.7132 3.80599 31.4297 4.00088C31.3411 4.06584 31.2526 4.11899 31.1728 4.19577C31.0854 4.2576 31.0034 4.32675 30.9277 4.40246C30.8392 4.47924 30.7742 4.55601 30.6915 4.64755C30.6088 4.73908 30.5498 4.81586 30.4966 4.90444L30.3195 5.1761L30.1777 5.47138L30.0744 5.76666L29.9858 6.09147C29.974 6.14462 29.974 6.20959 29.9563 6.25978C29.9386 6.30998 29.9445 6.36313 29.9267 6.41333L29.9149 6.73814C29.9149 6.81491 29.9149 6.89169 29.9267 6.97436C29.9267 7.07771 29.9385 7.18106 29.9651 7.29917C29.9917 7.41729 30.0035 7.50587 30.0301 7.60922L30.1334 7.91926C30.163 7.98423 30.1984 8.04919 30.222 8.09643L27.2515 6.94484L25.7544 6.56097L24.9394 6.36608C24.1622 6.21117 23.3778 6.09488 22.589 6.01765C22.5595 6.01765 22.5506 6.00584 22.524 6.00584L20.212 5.88773L18.52 5.95269C17.7316 6.00584 16.9432 6.10624 16.1578 6.23616L15.5761 6.33951L14.4127 6.5964L13.8309 6.74995L13.2758 6.99503L12.8506 7.18992C12.8211 7.20173 12.7975 7.20173 12.7857 7.21945L12.4254 7.39662C12.387 7.40843 12.3604 7.42614 12.3368 7.435L11.9352 7.6417C11.8467 7.68009 11.7581 7.73028 11.6783 7.77162C11.64 7.80115 11.5898 7.82182 11.5602 7.83659L11.2236 8.03147C11.1167 8.09055 11.0132 8.15562 10.9136 8.22636L10.6567 8.40353L10.3732 8.61022L10.1547 8.78739C10.1252 8.7992 10.1015 8.82578 10.0779 8.84054L9.88304 9.00885C9.87123 9.03838 9.84465 9.04724 9.82989 9.062L9.59366 9.28051L9.33677 9.5256L9.11826 9.76182C9.08873 9.79135 9.0533 9.81497 9.02968 9.83859C8.9603 9.91952 8.88739 9.99735 8.81117 10.0719C8.79936 10.1014 8.77278 10.1103 8.75802 10.1368L8.46273 10.4469L7.76587 11.1172C7.52965 11.3239 7.28751 11.5187 7.04243 11.6841L6.26879 12.1743C6.0119 12.316 5.73729 12.4459 5.45382 12.5581C5.17942 12.6749 4.89956 12.7783 4.61522 12.8682C4.0719 12.9863 3.51677 13.2048 3.03842 13.2432C2.93507 13.2432 2.81991 13.2727 2.71361 13.2816L2.3888 13.3583L2.07875 13.4765C1.97303 13.5183 1.86955 13.5657 1.76871 13.6182C1.68012 13.6832 1.57382 13.7363 1.48524 13.7954C1.39665 13.8544 1.30807 13.9371 1.22834 14.0139C1.14861 14.0906 1.05117 14.1674 0.971446 14.2501L0.752937 14.507C0.687976 14.6103 0.611202 14.7019 0.558052 14.8023C0.490472 14.8969 0.430254 14.9966 0.37793 15.1005L0.236195 15.4371L0.118083 15.7738L0.0531207 16.0838C0.0147341 16.2373 0.0147341 16.3938 -2.99881e-05 16.4677C-0.0147941 16.5415 -2.99881e-05 16.6389 -2.99881e-05 16.7305C-0.00253844 16.7868 0.00142453 16.8433 0.0117813 16.8988C0.0235925 16.9874 0.0413094 17.0671 0.0649319 17.1439L0.153516 17.3801C0.191903 17.4687 0.242101 17.5484 0.295251 17.6252L0.463562 17.8614L0.68207 18.0681C0.757762 18.1438 0.839752 18.213 0.927154 18.2748C1.2372 18.5464 1.31102 18.635 1.71555 18.8417C1.78052 18.8801 1.84548 18.9067 1.92225 18.9451C1.96064 18.9835 1.96064 18.9953 1.9754 19.0218C1.98721 19.1252 2.01379 19.2285 2.04036 19.3319C2.06502 19.4382 2.09962 19.5421 2.14371 19.6419L2.24706 19.8782C2.25887 19.9077 2.27659 19.9313 2.28545 19.9431L2.43899 20.2266L2.63388 20.4983L2.85239 20.7433C2.92916 20.8201 3.00593 20.8851 3.09747 20.9618L3.35437 21.1567C3.44295 21.2217 3.53154 21.2748 3.63784 21.325C3.73337 21.3801 3.83309 21.4274 3.93607 21.4668C4.01284 21.5052 4.10438 21.5317 4.19297 21.5554C4.28155 21.579 4.36128 21.6085 4.41147 21.6203C4.37309 22.3172 4.35832 22.9786 4.46462 23.2089C4.58274 23.4658 5.14968 22.6774 5.71662 21.7768C5.63984 22.6686 5.58669 23.7139 5.71662 24.021C5.84654 24.3281 6.63199 23.3359 7.30523 22.2256C16.459 20.1085 24.8154 26.4364 25.6924 35.3716C25.5241 33.9778 23.8085 33.2013 23.0201 33.3932C22.6362 34.3499 21.9748 35.5783 20.9148 36.3371C21.0033 35.4808 20.9649 34.6068 20.7848 33.7534C20.496 34.9422 19.9496 36.053 19.1844 37.0074C17.959 37.096 16.7336 36.5055 16.0839 35.6137C16.0308 35.5753 16.019 35.4956 15.9806 35.4454L15.8772 35.1737C15.8389 35.0852 15.8123 34.9966 15.8005 34.9021C15.7887 34.8076 15.7887 34.7249 15.7887 34.6186V34.4237C15.8005 34.3351 15.8271 34.2466 15.8536 34.1521L15.9422 33.8804C15.9954 33.7918 16.0308 33.7032 16.0958 33.6087C16.3143 33.0182 16.3143 32.4867 15.9186 32.1914C15.8418 32.1382 15.765 32.1028 15.6735 32.0615C15.6204 32.0497 15.5554 32.0231 15.5052 32.0083L15.4018 31.9699L15.1302 31.905C15.0419 31.8794 14.9504 31.8665 14.8585 31.8666C14.7648 31.8513 14.67 31.8424 14.5751 31.84C14.5101 31.84 14.4451 31.8518 14.3802 31.8518C14.2843 31.851 14.1889 31.8639 14.0967 31.8902L13.825 31.9404L13.5534 32.029L13.2965 32.1471L13.0514 32.277C10.0395 34.2407 11.8408 38.8323 13.89 40.1669C13.1164 40.3087 12.325 40.477 12.1095 40.6453C12.641 41.0055 13.2197 41.2949 13.828 41.5371L15.9186 42.1276C16.9905 42.3638 18.0741 42.4377 19.1726 42.3727C21.9628 42.1684 24.5997 41.0177 26.6471 39.111C28.6944 37.2043 30.0296 34.6559 30.4317 31.8873L30.5084 32.2239L30.6266 32.9473L30.6797 33.2957L30.7092 33.6796L30.7388 34.1048V34.3115C30.7388 34.3765 30.7506 34.4533 30.7506 34.5182C30.7506 34.5832 30.7388 34.6718 30.7388 34.7544V34.9316C30.7388 35.0202 30.727 35.0999 30.727 35.1885C30.727 35.2387 30.727 35.2919 30.7151 35.3568L30.7033 35.6403C30.6915 35.6787 30.6915 35.7171 30.6915 35.7584L30.6531 36.0537C30.6531 36.0921 30.6531 36.1305 30.6413 36.1718L30.5911 36.5468V36.5763L30.5143 36.9366L30.4376 37.3204L30.3342 37.722L30.2309 38.1236L30.101 38.537L29.8175 39.287L29.6639 39.662L29.4868 40.0223C29.475 40.0606 29.4572 40.0872 29.4484 40.1108C28.5832 41.8412 27.343 43.3294 25.7928 44.4869C25.6894 44.5519 25.5861 44.6287 25.4828 44.7054C25.4532 44.735 25.4178 44.7438 25.3942 44.7704L25.1107 44.9653L25.1491 45.042H25.1609L25.7042 44.9653H25.716L26.72 44.7881C26.8086 44.7763 26.9149 44.7497 27.0035 44.7231L27.1806 44.6848L27.4523 44.6346L27.6885 44.5696C28.9789 44.2595 30.2279 43.8314 31.4327 43.3294C29.3805 46.1346 26.6284 48.3905 23.4128 49.8758C24.8981 49.7725 26.3834 49.5274 27.8125 49.114C33.0154 47.5785 37.3944 44.0794 40.0165 39.3638C39.4848 42.3536 38.2991 45.1889 36.544 47.6671C37.796 46.8403 38.9446 45.8865 39.9929 44.8029C42.883 41.7852 44.7801 37.955 45.429 33.8273C45.8719 35.8647 45.996 37.973 45.804 40.0518C55.1261 27.0476 46.5777 13.565 42.9988 10.0158C42.987 9.98623 42.9693 9.97738 42.9693 9.9508C42.9398 10.1043 42.9309 10.2608 42.9191 10.4144C42.8807 10.7097 42.8423 10.9961 42.7892 11.2796C42.736 11.563 42.6475 11.8465 42.5707 12.1359C42.4939 12.4253 42.3758 12.691 42.2606 12.9627C42.1455 13.2343 42.0156 13.4942 41.8768 13.7511C41.7345 14.0036 41.5797 14.249 41.4132 14.4863C41.2449 14.7314 41.0648 14.9647 40.8817 15.1832C40.6889 15.408 40.486 15.6237 40.2734 15.8299C40.1435 15.948 40.0283 16.0484 39.8984 16.1547L39.6031 16.4116C39.3725 16.5945 39.1309 16.7631 38.8797 16.9165C38.6331 17.0756 38.3788 17.2224 38.1178 17.3565C37.8462 17.4864 37.5745 17.6015 37.3029 17.7167C37.0279 17.8208 36.748 17.9114 36.4643 17.9884C36.1808 18.0651 35.8826 18.1301 35.5991 18.1832C35.3156 18.2364 35.0085 18.26 34.7221 18.2866C34.5154 18.2984 34.3087 18.3161 34.1315 18.3161C33.8363 18.3161 33.541 18.2866 33.2546 18.263C32.9681 18.2394 32.664 18.198 32.3746 18.133C32.0816 18.08 31.7925 18.007 31.5094 17.9145H31.4976C31.7811 17.885 32.0646 17.8614 32.354 17.8112C32.6433 17.761 32.9357 17.6931 33.2191 17.6163C33.5026 17.5395 33.7861 17.448 34.0577 17.3446C34.3294 17.2413 34.6129 17.1084 34.8727 16.9844C35.1374 16.8554 35.3955 16.7135 35.6463 16.5592C35.8914 16.3909 36.1365 16.2226 36.3698 16.0425C36.6011 15.8624 36.8211 15.6681 37.0283 15.4608C37.2468 15.2659 37.4417 15.0474 37.6365 14.8288C37.8314 14.6103 38.0115 14.3653 38.1799 14.132C38.2094 14.0936 38.233 14.0434 38.2566 14.0021L38.6316 13.4115C38.7734 13.1546 38.9033 12.8948 39.0155 12.6231C39.1277 12.3514 39.234 12.0798 39.3255 11.7963C39.4171 11.5128 39.4791 11.2412 39.5441 10.9577C39.609 10.6742 39.6474 10.376 39.674 10.0925C39.7006 9.80907 39.7242 9.50197 39.7242 9.21555C39.7242 9.00885 39.7124 8.80216 39.6946 8.62499C39.6651 8.32971 39.6297 8.04328 39.5913 7.75981C39.5399 7.46853 39.4749 7.17982 39.3964 6.89464C39.3078 6.62298 39.2192 6.33951 39.1129 6.06785C39.0066 5.79619 38.8767 5.52453 38.7527 5.27059C38.6287 5.01665 38.4692 4.75385 38.3098 4.50876C38.1503 4.26368 37.9732 4.03041 37.793 3.80009L37.2025 3.14161C37.0934 3.03111 36.9811 2.92378 36.8658 2.81976C36.2873 2.37005 35.6882 1.94735 35.0705 1.553C34.982 1.5028 34.9022 1.46441 34.8136 1.42307C34.3884 1.15142 33.9869 1.00968 33.5882 0.879756L33.5439 0.835464Z" fill="#EA2845"/>
</g>
<defs>
<clipPath id="clip0_636_521">
<rect width="50" height="50" fill="white"/>
</clipPath>
</defs>
</svg>
