<svg width="50" height="27" viewBox="0 0 50 27" fill="none" xmlns="http://www.w3.org/2000/svg">
<g clip-path="url(#clip0_610_27)">
<mask id="mask0_610_27" style="mask-type:luminance" maskUnits="userSpaceOnUse" x="0" y="0" width="50" height="27">
<path d="M0.703064 13.5003C0.703064 20.5673 11.5814 26.2964 25 26.2964C38.4186 26.2964 49.297 20.5673 49.297 13.5003C49.297 6.43329 38.4186 0.704115 25 0.704115C11.5814 0.704115 0.703064 6.43329 0.703064 13.5003Z" fill="white"/>
</mask>
<g mask="url(#mask0_610_27)">
<path d="M0.703064 13.5003C0.703064 20.5673 11.5814 26.2964 25 26.2964C38.4186 26.2964 49.297 20.5673 49.297 13.5003C49.297 6.43329 38.4186 0.704115 25 0.704115C11.5814 0.704115 0.703064 6.43329 0.703064 13.5003Z" fill="url(#paint0_radial_610_27)"/>
</g>
<mask id="mask1_610_27" style="mask-type:luminance" maskUnits="userSpaceOnUse" x="-1" y="-1" width="52" height="29">
<path d="M-0.309326 -0.753023H50.3093V27.7534H-0.309326V-0.753023Z" fill="white"/>
</mask>
<g mask="url(#mask1_610_27)">
<path d="M25 25.3462C37.8944 25.3462 48.3478 20.0425 48.3478 13.5001C48.3478 6.95778 37.8944 1.65399 25 1.65399C12.1055 1.65399 1.65216 6.95778 1.65216 13.5001C1.65216 20.0425 12.1055 25.3462 25 25.3462Z" fill="#777BB3"/>
</g>
<mask id="mask2_610_27" style="mask-type:luminance" maskUnits="userSpaceOnUse" x="-1" y="-1" width="52" height="29">
<path d="M-0.309326 -0.753023H50.3093V27.7534H-0.309326V-0.753023Z" fill="white"/>
</mask>
<g mask="url(#mask2_610_27)">
<path d="M13.9038 14.9693C14.964 14.9693 15.7556 14.7736 16.2564 14.3877C16.7519 14.0057 17.0941 13.344 17.2734 12.421C17.4407 11.5582 17.3769 10.9558 17.0841 10.6307C16.7847 10.2987 16.1374 10.1303 15.1602 10.1303H13.4658L12.5264 14.9693H13.9038ZM8.36183 20.9302C8.28318 20.9302 8.20848 20.895 8.15848 20.8341C8.10839 20.7733 8.08809 20.6932 8.10312 20.6159L10.5926 7.79231C10.6166 7.66835 10.7252 7.57878 10.8514 7.57878H16.2168C17.903 7.57878 19.1581 8.03717 19.947 8.94137C20.7401 9.85032 20.985 11.1209 20.6749 12.7177C20.5487 13.3682 20.3316 13.9724 20.0298 14.5133C19.7276 15.0549 19.3281 15.5559 18.8424 16.0029C18.261 16.5477 17.603 16.9427 16.8883 17.1752C16.185 17.4045 15.2818 17.5208 14.2038 17.5208H12.0312L11.4108 20.7166C11.3867 20.8406 11.2783 20.9302 11.1521 20.9302H8.36183Z" fill="black"/>
<path d="M13.6832 10.394H15.1602C16.3397 10.394 16.7494 10.6531 16.8886 10.8075C17.1195 11.0639 17.1631 11.6044 17.0147 12.3707C16.8479 13.2285 16.5387 13.8367 16.0956 14.1783C15.642 14.5279 14.9045 14.7051 13.9038 14.7051H12.8463L13.6832 10.394ZM16.2168 7.31455H10.8513C10.5989 7.31455 10.382 7.49369 10.3338 7.74171L7.84435 20.5653C7.8143 20.7201 7.8549 20.8801 7.95499 21.0018C8.05518 21.1235 8.2044 21.1938 8.36188 21.1938H11.1521C11.4045 21.1938 11.6215 21.0147 11.6697 20.7667L12.2486 17.7845H14.2038C15.3095 17.7845 16.2404 17.6638 16.9702 17.4258C17.7208 17.1817 18.4113 16.7677 19.0225 16.1955C19.528 15.7298 19.9444 15.2072 20.2599 14.6419C20.5755 14.0765 20.8022 13.4459 20.9337 12.7677C21.2602 11.0869 20.995 9.74095 20.1455 8.7675C19.3044 7.80339 17.9825 7.31455 16.2168 7.31455ZM12.2066 15.233H13.9038C15.0288 15.233 15.8667 15.0209 16.4173 14.5965C16.9679 14.1721 17.3393 13.4638 17.5323 12.4711C17.7169 11.5181 17.6328 10.8456 17.28 10.4538C16.9267 10.062 16.2202 9.86606 15.1602 9.86606H13.2485L12.2066 15.233ZM16.2168 7.84245C17.8309 7.84245 19.0084 8.26653 19.7485 9.11477C20.4885 9.96301 20.7114 11.147 20.4161 12.6671C20.2946 13.2933 20.089 13.8658 19.7997 14.3844C19.5099 14.9034 19.1316 15.378 18.6641 15.8083C18.1069 16.3303 17.488 16.7023 16.8069 16.9239C16.1259 17.146 15.2584 17.2566 14.2038 17.2566H11.8139L11.1521 20.666H8.36188L10.8513 7.84245H16.2168Z" fill="white"/>
<path d="M27.0724 17.5205C26.9937 17.5205 26.9191 17.4853 26.8691 17.4244C26.8189 17.3636 26.7986 17.2837 26.8136 17.2062L27.9148 11.5323C28.0196 10.9927 27.9937 10.6054 27.8422 10.4418C27.7494 10.3417 27.4706 10.1739 26.6464 10.1739H24.6513L23.2668 17.3069C23.2427 17.4309 23.1342 17.5205 23.008 17.5205H20.2398C20.161 17.5205 20.0864 17.4853 20.0363 17.4244C19.9863 17.3636 19.966 17.2836 19.981 17.2062L22.4704 4.38264C22.4945 4.25868 22.603 4.16911 22.7292 4.16911H25.4974C25.5762 4.16911 25.6508 4.2043 25.7009 4.2651C25.751 4.32598 25.7713 4.40596 25.7562 4.48339L25.1555 7.57845H27.3017C28.9367 7.57845 30.0454 7.86703 30.6911 8.46074C31.3493 9.06641 31.5547 10.0348 31.3016 11.3394L30.1434 17.3069C30.1193 17.4309 30.0108 17.5205 29.8846 17.5205H27.0724Z" fill="black"/>
<path d="M25.4974 3.90537H22.7292C22.4767 3.90537 22.2598 4.08451 22.2116 4.33253L19.7222 17.1561C19.6921 17.3109 19.7327 17.4709 19.8329 17.5926C19.9331 17.7143 20.0823 17.7847 20.2398 17.7847H23.008C23.2604 17.7847 23.4774 17.6055 23.5256 17.3575L24.8686 10.4381H26.6464C27.4692 10.4381 27.6419 10.6141 27.6488 10.6216C27.6987 10.6754 27.7644 10.9244 27.656 11.4822L26.5548 17.1561C26.5247 17.3109 26.5653 17.4709 26.6655 17.5926C26.7657 17.7143 26.9149 17.7847 27.0724 17.7847H29.8845C30.1369 17.7847 30.354 17.6055 30.4022 17.3575L31.5603 11.3901C31.8321 9.9893 31.5996 8.93852 30.8695 8.26668C30.1728 7.62608 29.0057 7.31471 27.3017 7.31471H25.4752L26.015 4.53401C26.045 4.37925 26.0045 4.21912 25.9043 4.09753C25.8041 3.97585 25.6549 3.90537 25.4974 3.90537ZM25.4974 4.43327L24.8356 7.84261H27.3017C28.8534 7.84261 29.9237 8.11377 30.5127 8.65539C31.1018 9.19737 31.2782 10.0755 31.0428 11.2894L29.8845 17.2568H27.0724L28.1736 11.5829C28.2989 10.9375 28.2529 10.4972 28.0353 10.2625C27.8176 10.0277 27.3546 9.9102 26.6464 9.9102H24.4339L23.008 17.2568H20.2398L22.7292 4.43327H25.4974Z" fill="white"/>
<path d="M35.6817 14.9693C36.742 14.9693 37.5335 14.7736 38.0343 14.3877C38.5298 14.0058 38.872 13.3441 39.0515 12.421C39.2187 11.5582 39.155 10.9558 38.8621 10.6307C38.5627 10.2987 37.9154 10.1303 36.9381 10.1303H35.2437L34.3044 14.9693H35.6817ZM30.1399 20.9302C30.0612 20.9302 29.9865 20.895 29.9365 20.8341C29.8864 20.7733 29.866 20.6932 29.8811 20.6159L32.3705 7.79231C32.3947 7.66835 32.5031 7.57878 32.6294 7.57878H37.9947C39.681 7.57878 40.936 8.03717 41.725 8.94137C42.5181 9.85023 42.763 11.1208 42.4529 12.7177C42.3266 13.3682 42.1096 13.9724 41.8077 14.5133C41.5055 15.0549 41.1061 15.5559 40.6204 16.0029C40.039 16.5477 39.3809 16.9427 38.6663 17.1752C37.963 17.4045 37.0598 17.5208 35.9817 17.5208H33.8091L33.1889 20.7166C33.1648 20.8406 33.0563 20.9302 32.93 20.9302H30.1399Z" fill="black"/>
<path d="M35.4611 10.394H36.9382C38.1176 10.394 38.5273 10.6531 38.6665 10.8075C38.8975 11.0639 38.9411 11.6044 38.7926 12.3706C38.6258 13.2285 38.3166 13.8367 37.8736 14.1783C37.4199 14.5279 36.6824 14.7051 35.6817 14.7051H34.6243L35.4611 10.394ZM37.9947 7.31455H32.6293C32.377 7.31455 32.16 7.49369 32.1118 7.74171L29.6224 20.5653C29.5923 20.7201 29.6329 20.8801 29.733 21.0018C29.8332 21.1235 29.9824 21.1938 30.1399 21.1938H32.9301C33.1825 21.1938 33.3995 21.0147 33.4477 20.7667L34.0265 17.7845H35.9818C37.0875 17.7845 38.0183 17.6638 38.7481 17.4258C39.4987 17.1817 40.1894 16.7676 40.8006 16.1953C41.3061 15.7298 41.7223 15.2072 42.0378 14.6419C42.3534 14.0765 42.5801 13.4459 42.7117 12.7677C43.0381 11.0868 42.7729 9.74086 41.9235 8.76742C41.0823 7.80339 39.7605 7.31455 37.9947 7.31455ZM33.9846 15.233H35.6817C36.8067 15.233 37.6446 15.0209 38.1952 14.5965C38.7459 14.1721 39.1172 13.4638 39.3102 12.4711C39.4949 11.5181 39.4108 10.8456 39.0579 10.4538C38.7046 10.062 37.9982 9.86606 36.9382 9.86606H35.0264L33.9846 15.233ZM37.9947 7.84245C39.6088 7.84245 40.7863 8.26653 41.5264 9.11477C42.2666 9.96301 42.4893 11.147 42.1941 12.6671C42.0725 13.2933 41.867 13.8658 41.5776 14.3844C41.2878 14.9034 40.9095 15.378 40.442 15.8083C39.8848 16.3303 39.2659 16.7023 38.5848 16.9239C37.9038 17.146 37.0363 17.2566 35.9818 17.2566H33.5918L32.9301 20.666H30.1399L32.6293 7.84245H37.9947Z" fill="white"/>
</g>
</g>
<defs>
<radialGradient id="paint0_radial_610_27" cx="0" cy="0" r="1" gradientUnits="userSpaceOnUse" gradientTransform="translate(15.2911 5.20284) scale(31.9053 31.9429)">
<stop stop-color="#AEB2D5"/>
<stop offset="0.3" stop-color="#AEB2D5"/>
<stop offset="0.75" stop-color="#484C89"/>
<stop offset="1" stop-color="#484C89"/>
</radialGradient>
<clipPath id="clip0_610_27">
<rect width="50" height="27" fill="white"/>
</clipPath>
</defs>
</svg>
