<svg width="50" height="45" viewBox="0 0 50 45" fill="none" xmlns="http://www.w3.org/2000/svg">
<g clip-path="url(#clip0_636_558)">
<path d="M25.0879 17.666C22.443 17.666 20.2988 19.8106 20.2988 22.4561C20.2988 25.1015 22.443 27.2461 25.0879 27.2461C27.7329 27.2461 29.877 25.1015 29.877 22.4561C29.877 19.8106 27.7329 17.666 25.0879 17.666Z" fill="#087EA4"/>
<path d="M49.9965 22.4995C49.9965 18.739 46.5147 15.4408 40.9711 13.2702C41.0452 12.7814 41.1122 12.2978 41.1599 11.8231C41.7066 6.41966 40.405 2.5197 37.4965 0.83972C34.2423 -1.03967 29.6458 0.324431 24.9982 4.04439C20.3506 0.324431 15.7542 -1.03967 12.5 0.83972C9.59151 2.5197 8.28983 6.41966 8.8366 11.8231C8.88422 12.2978 8.94948 12.7831 9.02533 13.2737C8.56321 13.4502 8.10992 13.6372 7.67426 13.8331C2.72506 16.0584 0 19.1395 0 22.4995C0 26.2601 3.48173 29.5583 9.02533 31.7288C8.94948 32.2176 8.88422 32.7012 8.8366 33.1759C8.28983 38.5793 9.59151 42.4793 12.5 44.1593C13.5 44.7264 14.6331 45.0164 15.7824 44.9993C18.5375 44.9993 21.7546 43.5487 24.9982 40.9546C28.2401 43.5487 31.459 44.9993 34.2176 44.9993C35.3669 45.0162 36.4999 44.7262 37.5 44.1593C40.4085 42.4793 41.7102 38.5793 41.1634 33.1759C41.1158 32.7012 41.0488 32.2176 40.9747 31.7288C46.5183 29.5618 50 26.2583 50 22.4995M34.1964 2.38206C34.9354 2.36422 35.6659 2.54328 36.313 2.90088C38.3325 4.06733 39.2391 7.23142 38.7982 11.5814C38.7682 11.8778 38.7329 12.1778 38.6906 12.4796C36.3855 11.7851 34.0251 11.2897 31.6354 10.999C30.1867 9.07243 28.5758 7.27352 26.8202 5.62203C29.577 3.49028 32.1645 2.38206 34.1946 2.38206M33.2475 27.2642C32.3554 28.8132 31.3841 30.3152 30.3372 31.7641C28.5628 31.9465 26.7802 32.0372 24.9965 32.0359C23.2133 32.0371 21.4313 31.9464 19.6575 31.7641C18.6134 30.3152 17.645 28.8132 16.756 27.2642C15.864 25.7194 15.0533 24.129 14.3273 22.4995C15.0533 20.87 15.864 19.2796 16.756 17.7348C17.6436 16.192 18.6091 14.6954 19.6487 13.2508C21.4257 13.0639 23.2114 12.9708 24.9982 12.9719C26.7814 12.9709 28.5634 13.0616 30.3372 13.2437C31.3804 14.6906 32.3494 16.1896 33.2404 17.7348C34.1318 19.28 34.9424 20.8704 35.6692 22.4995C34.9424 24.1286 34.1318 25.719 33.2404 27.2642M36.8827 25.4995C37.4425 27.0267 37.902 28.5888 38.2584 30.1759C36.7117 30.6583 35.135 31.0386 33.5385 31.3141C34.1453 30.3988 34.7332 29.4465 35.3023 28.4571C35.865 27.4795 36.3923 26.493 36.8897 25.5065M21.6488 34.3106C22.7459 34.3776 23.8659 34.4164 25 34.4164C26.1341 34.4164 27.2612 34.3776 28.36 34.3106C27.3182 35.5591 26.1958 36.7381 25 37.8399C23.8068 36.7382 22.6873 35.5592 21.6488 34.3106ZM16.4597 31.3106C14.8627 31.0363 13.2854 30.6572 11.738 30.1759C12.093 28.5913 12.5508 27.0316 13.1085 25.5065C13.5988 26.493 14.1245 27.4795 14.6959 28.4571C15.2674 29.4347 15.8583 30.3983 16.4597 31.3141M13.1085 19.4907C12.5528 17.9713 12.0962 16.4175 11.7416 14.839C13.2851 14.3571 14.8581 13.9758 16.4509 13.6972C15.8477 14.6096 15.2568 15.5555 14.6871 16.5419C14.1174 17.5284 13.5971 18.5025 13.0997 19.4907M28.3494 10.6867C27.2524 10.6196 26.1324 10.5808 24.9894 10.5808C23.8559 10.5808 22.7388 10.6161 21.6382 10.6867C22.6768 9.43801 23.7962 8.259 24.9894 7.1573C26.1856 8.25872 27.3081 9.43772 28.3494 10.6867ZM35.2988 16.5419C34.7273 15.5513 34.1364 14.5984 33.5262 13.6831C35.1269 13.9587 36.7078 14.3395 38.2584 14.8231C37.9026 16.4075 37.4449 17.9672 36.888 19.4925C36.3976 18.506 35.8703 17.5196 35.3005 16.5437M11.2054 11.5831C10.7591 7.23495 11.671 4.0691 13.6888 2.90264C14.3361 2.5456 15.0664 2.36658 15.8053 2.38382C17.8355 2.38382 20.423 3.49205 23.1798 5.62379C21.423 7.27645 19.8109 9.07654 18.3611 11.0043C15.972 11.2964 13.6119 11.7899 11.3059 12.4796C11.2653 12.1778 11.2283 11.8796 11.2001 11.5831M8.6514 16.0055C8.92303 15.8878 9.19994 15.7702 9.48215 15.6525C10.037 17.9943 10.7893 20.2849 11.731 22.4995C10.7875 24.7185 10.0346 27.0138 9.48039 29.3606C4.98624 27.5165 2.38112 24.9612 2.38112 22.4995C2.38112 20.1666 4.67405 17.8001 8.6514 16.0055ZM13.6888 42.0964C11.671 40.9299 10.7591 37.7641 11.2054 33.4159C11.2336 33.1194 11.2706 32.8212 11.3112 32.5176C13.6163 33.212 15.9767 33.7073 18.3664 33.9982C19.8155 35.9255 21.4264 37.7256 23.1815 39.3787C19.3382 42.3487 15.8265 43.3281 13.6941 42.0964M38.7964 33.4159C39.2373 37.7658 38.3307 40.9299 36.3112 42.0964C34.1805 43.3316 30.6671 42.3487 26.8255 39.3787C28.5801 37.7255 30.1904 35.9255 31.6389 33.9982C34.0286 33.7075 36.389 33.2122 38.6941 32.5176C38.7364 32.8212 38.7717 33.1194 38.8017 33.4159M40.5267 29.3571C39.9709 27.0116 39.2174 24.7176 38.2743 22.4995C39.217 20.2802 39.9699 17.985 40.5249 15.6384C45.0102 17.4825 47.6224 20.0378 47.6224 22.4995C47.6224 24.9612 45.0173 27.5165 40.5231 29.3606" fill="#087EA4"/>
</g>
<defs>
<clipPath id="clip0_636_558">
<rect width="50" height="45" fill="white"/>
</clipPath>
</defs>
</svg>
