<svg width="44" height="50" viewBox="0 0 44 50" fill="none" xmlns="http://www.w3.org/2000/svg">
<g clip-path="url(#clip0_636_604)">
<path d="M38.5351 9.5982C38.495 9.35723 38.294 9.19659 38.0931 9.19659C37.8922 9.19659 34.3561 9.11627 34.3561 9.11627C34.3561 9.11627 31.3826 6.2247 31.1013 5.94358C30.8201 5.66246 30.2173 5.74278 30.0164 5.8231C30.0164 5.8231 29.4539 5.98374 28.5297 6.26486C28.3689 5.74278 28.1278 5.14037 27.8064 4.4978C26.7616 2.48976 25.1945 1.40543 23.3461 1.40543C23.2255 1.40543 23.105 1.40543 22.9443 1.44559C22.9041 1.36527 22.8237 1.32511 22.7835 1.24478C21.9799 0.36125 20.9351 -0.0403559 19.6895 -0.000195222C17.2785 0.0801261 14.8676 1.80703 12.9388 4.8994C11.5726 7.06808 10.5278 9.799 10.2064 11.9275C7.43377 12.7709 5.505 13.3733 5.46482 13.4135C4.05843 13.8552 4.01824 13.8954 3.85751 15.2207C3.73696 16.2247 0.0401611 44.538 0.0401611 44.538L30.7397 49.8392L44.0402 46.546C44 46.5058 38.5753 9.83916 38.5351 9.5982ZM27.0027 6.74679C26.2794 6.9476 25.4758 7.22872 24.6319 7.46968C24.6319 6.26486 24.4712 4.53796 23.9087 3.09217C25.7169 3.45362 26.6009 5.50181 27.0027 6.74679ZM22.9845 7.99177C21.3771 8.4737 19.6091 9.03595 17.8411 9.55804C18.3233 7.67049 19.2876 5.78294 20.4128 4.53796C20.8548 4.09619 21.4575 3.5741 22.1406 3.25282C22.8639 4.65844 23.0246 6.62631 22.9845 7.99177ZM19.7297 1.60623C20.2922 1.60623 20.7744 1.72671 21.1762 1.96768C20.5333 2.32912 19.8904 2.81105 19.2876 3.45362C17.7607 5.10021 16.5954 7.67049 16.1132 10.1203C14.6666 10.5621 13.2201 11.0038 11.894 11.4054C12.7379 7.55 15.9927 1.72671 19.7297 1.60623Z" fill="#95BF47"/>
<path d="M38.0931 9.19649C37.8922 9.19649 34.3561 9.11617 34.3561 9.11617C34.3561 9.11617 31.3826 6.2246 31.1014 5.94348C30.9808 5.823 30.8603 5.78284 30.6995 5.74268V49.7989L44 46.5057C44 46.5057 38.5753 9.83906 38.5351 9.55794C38.495 9.35713 38.294 9.19649 38.0931 9.19649Z" fill="#5E8E3E"/>
<path d="M23.3059 16.0238L21.779 21.8069C21.779 21.8069 20.0511 21.0037 18.0018 21.1643C14.9881 21.3651 14.9881 23.2527 14.9881 23.7346C15.1488 26.3049 21.9397 26.8671 22.3415 32.9314C22.6228 37.7105 19.81 40.9635 15.7516 41.2045C10.8493 41.5258 8.15704 38.6342 8.15704 38.6342L9.20179 34.2165C9.20179 34.2165 11.894 36.2647 14.0639 36.1041C15.4703 36.0238 15.9927 34.8591 15.9525 34.0559C15.7516 30.6824 10.2064 30.8832 9.84472 25.341C9.56344 20.6824 12.6173 15.9435 19.368 15.5418C21.9799 15.341 23.3059 16.0238 23.3059 16.0238Z" fill="white"/>
</g>
<defs>
<clipPath id="clip0_636_604">
<rect width="44" height="50" fill="white"/>
</clipPath>
</defs>
</svg>
