<svg width="50" height="50" viewBox="0 0 50 50" fill="none" xmlns="http://www.w3.org/2000/svg">
<path d="M25 10.0044C18.3333 10.0044 14.1667 13.3367 12.5 20.0013C15 16.669 17.9167 15.42 21.25 16.2523C23.1521 16.7273 24.5115 18.1075 26.0167 19.6346C28.4667 22.1211 31.3031 25.0002 37.5 25.0002C44.1667 25.0002 48.3333 21.6679 50 15.0023C47.5 18.3346 44.5833 19.5846 41.25 18.7523C39.349 18.2773 37.9896 16.8971 36.4844 15.37C34.0333 12.8825 31.1958 10.0044 25 10.0044ZM12.5 25.0002C5.83333 25.0002 1.66667 28.3325 0 34.9981C2.5 31.6659 5.41667 30.4159 8.75 31.2492C10.651 31.7252 12.0104 33.1044 13.5156 34.6304C15.9667 37.1179 18.8042 39.9971 25 39.9971C31.6667 39.9971 35.8333 36.6648 37.5 29.9992C35 33.3315 32.0833 34.5815 28.75 33.7481C26.8479 33.2731 25.4885 31.8929 23.9833 30.3669C21.5333 27.8794 18.6969 25.0002 12.5 25.0002Z" fill="#00ACC1"/>
</svg>
