<svg width="50" height="50" viewBox="0 0 50 50" fill="none" xmlns="http://www.w3.org/2000/svg">
<path d="M43.75 6.25H6.25V43.75H43.75V6.25Z" fill="#1976D2"/>
<path d="M28.6354 22.9165H14.8198V26.3165H19.775V41.6665H23.701V26.3165H28.6354V22.9165Z" fill="white"/>
<path d="M40.8271 27.171C40.8271 27.171 38.9656 25.9294 36.8614 25.9294C34.7573 25.9294 34 26.9294 34 27.9981C34 30.7565 41.6885 30.4804 41.6885 36.0315C41.6885 44.5825 29.9656 40.7898 29.9656 40.7898V36.6877C29.9656 36.6877 32.2073 38.3773 34.8958 38.3773C37.5844 38.3773 37.4823 36.619 37.4823 36.3773C37.4823 33.8262 29.8625 33.8262 29.8625 28.171C29.8625 20.4825 40.9646 23.5158 40.9646 23.5158L40.8271 27.171Z" fill="white"/>
</svg>
